<svg width="32" height="32" viewBox="0 0 32 32" fill="none" xmlns="http://www.w3.org/2000/svg">
<rect width="32" height="32" fill="#1E1E1E"/>
<circle cx="16" cy="16" r="16" fill="black"/>
<path d="M4.64 22C4.31 22 4.005 21.92 3.725 21.76C3.455 21.6 3.24 21.385 3.08 21.115C2.92 20.835 2.84 20.53 2.84 20.2V13C2.84 12.67 2.92 12.37 3.08 12.1C3.24 11.82 3.455 11.6 3.725 11.44C4.005 11.28 4.31 11.2 4.64 11.2H11.84C12.17 11.2 12.47 11.28 12.74 11.44C13.02 11.6 13.24 11.82 13.4 12.1C13.56 12.37 13.64 12.67 13.64 13V13.435H12.425V13C12.425 12.84 12.365 12.705 12.245 12.595C12.135 12.475 12 12.415 11.84 12.415H4.64C4.48 12.415 4.34 12.475 4.22 12.595C4.11 12.705 4.055 12.84 4.055 13V20.2C4.055 20.36 4.11 20.5 4.22 20.62C4.34 20.73 4.48 20.785 4.64 20.785H11.84C12 20.785 12.135 20.73 12.245 20.62C12.365 20.5 12.425 20.36 12.425 20.2V17.53H9.755V16.3H13.64V20.2C13.64 20.53 13.56 20.835 13.4 21.115C13.24 21.385 13.02 21.6 12.74 21.76C12.47 21.92 12.17 22 11.84 22H4.64ZM15.2912 22V11.2H16.9562L21.4412 16.54L25.9262 11.2H27.5912V22H26.3762V12.58L21.4412 18.445L16.5062 12.58V22H15.2912Z" fill="white"/>
</svg>
